# xmcd
#
# Track frame offsets: 
#        150
#        15556
#        35561
#        53639
#        72179
#        90359
#        111251
#        132991
#        155614
#        172996
#        192758
#        210981
#        227796
#        242372
#        262343
#        281214
#        297872
#        317850
#
# Disc length: 4500 seconds
#
# Revision: 0
# Processed by: cddbd v1.5.1PL0 Copyright (c) Steve Scherf et al.
# Submitted via: ExactAudioCopy v0.95a5
#
DISCID=fe119212
DTITLE=Various Artist - Amarguras de la bachata
DYEAR=2005
DGENRE=Bachata
TTITLE0=Chica linda
TTITLE1=Un osito dormilon
TTITLE2=Voy a dejar de amarte
TTITLE3=Estoy perdido
TTITLE4=No puedo confiar en ti
TTITLE5=Dos amantes
TTITLE6=Mensajes a papa
TTITLE7=Ay hombe
TTITLE8=Si tu estuvieras
TTITLE9=Un chance mas
TTITLE10=Baby come back
TTITLE11=Necesito un amor
TTITLE12=Por unas pocas monedas
TTITLE13=Si tu te vas
TTITLE14=Traicion
TTITLE15=Muriendo a plazo
TTITLE16=Todo le he dado
TTITLE17=Yo te recuerdo
EXTD=
EXTT0=
EXTT1=
EXTT2=
EXTT3=
EXTT4=
EXTT5=
EXTT6=
EXTT7=
EXTT8=
EXTT9=
EXTT10=
EXTT11=
EXTT12=
EXTT13=
EXTT14=
EXTT15=
EXTT16=
EXTT17=
PLAYORDER=
